<svg width="578" height="577" xmlns="http://www.w3.org/2000/svg" xmlns:xlink="http://www.w3.org/1999/xlink" xml:space="preserve" overflow="hidden"><defs><filter id="fx0" x="-10%" y="-10%" width="120%" height="120%" filterUnits="userSpaceOnUse" primitiveUnits="userSpaceOnUse"><feComponentTransfer color-interpolation-filters="sRGB"><feFuncR type="discrete" tableValues="0 0"/><feFuncG type="discrete" tableValues="0 0"/><feFuncB type="discrete" tableValues="0 0"/><feFuncA type="linear" slope="0.4" intercept="0"/></feComponentTransfer><feGaussianBlur stdDeviation="7.63889 7.63889"/></filter></defs><g transform="translate(-802 -500)"><g filter="url(#fx0)" transform="translate(802 500)"><g><path d="M23.7998 152.508C23.7998 81.4299 81.4196 23.8101 152.497 23.8101L425.502 23.8101C496.58 23.8101 554.2 81.4299 554.2 152.508L554.2 424.493C554.2 495.57 496.58 553.19 425.502 553.19L152.497 553.19C81.4196 553.19 23.7998 495.57 23.7998 424.493Z" fill-rule="evenodd"/></g></g><path d="M831 655.174C831 585.49 887.49 529 957.174 529L1224.83 529C1294.51 529 1351 585.49 1351 655.174L1351 921.826C1351 991.51 1294.51 1048 1224.83 1048L957.174 1048C887.49 1048 831 991.51 831 921.826Z" fill-rule="evenodd"/><path d="M1083.68 606 1093.71 606C1093.71 625.2 1098.39 642 1107.75 656.4 1117.11 670.8 1127.94 683.333 1140.25 694 1148.54 700.933 1156.63 709 1164.52 718.2 1172.41 727.4 1178.96 737.533 1184.18 748.6 1189.39 759.667 1192 771.467 1192 784 1192 800.8 1188.79 817.4 1182.37 833.8 1175.95 850.2 1167.93 866.133 1158.3 881.6L1147.87 881.6C1150.81 875.467 1154.29 867.867 1158.3 858.8 1162.31 849.733 1165.79 839.933 1168.73 829.4 1171.67 818.867 1173.14 808.266 1173.14 797.6 1173.14 782.133 1169.93 768 1163.52 755.2 1157.1 742.4 1148.34 731.6 1137.24 722.8 1126.14 714 1113.64 708.133 1099.73 705.2L1099.73 906C1099.73 919.866 1096.25 931.866 1089.3 942 1082.34 952.133 1073.32 960 1062.22 965.6 1051.12 971.2 1039.15 974 1026.31 974 1017.22 974 1008.72 971.533 1000.84 966.6 992.945 961.667 989 954.267 989 944.4 989 934.8 992.477 925.8 999.431 917.4 1006.38 909 1015.21 902.2 1025.91 897 1036.61 891.8 1047.44 889.2 1058.4 889.2 1068.84 889.2 1077.26 890.933 1083.68 894.4Z" fill="#FFFFFF" fill-rule="evenodd"/></g></svg>